# xmcd CD database file
#
# Track frame offsets:
#	150
#	22186
#	34470
#	44858
#	54522
#	67165
#	76843
#	86025
#	101751
#	111167
#	122659
#	141513
#	155182
#	171383
#	191188
#	204757
#
# Disc length: 2911 seconds
#
# Revision: 0
# Processed by: cddbd v1.5.2PL0 Copyright (c) Steve Scherf et al.
# Submitted via: CDex 1.70beta2
#
DISCID=f90b5d10
DTITLE=Various Artist - The Best Of Country and Western Vol.1 [CD 2)
DYEAR=2008
DGENRE=Country
TTITLE0=Willie Nelson - City of New Orleans
TTITLE1=Dolly Parton - Letter to heaven
TTITLE2=Anne Murray - Some birds
TTITLE3=Johnny Cash - Why my lord
TTITLE4=Charley Pride - Help me make it through the night
TTITLE5=Jim Reeves - I´m getting better
TTITLE6=Dave Dudley - Keep on truckin´
TTITLE7=Jenna Pruett - Satin Sheets
TTITLE8=Charly Pride - Kiss an angel good morning
TTITLE9=Donna Fargo - the happiest girl in the whole U.S.A.
TTITLE10=Marty Robbins - El Paso City
TTITLE11=Willie Nelson and Waylon Jennings - Good hearted woman
TTITLE12=Freddy Fender - Another shot of ambition
TTITLE13=The Mavericks - Dance the night away
TTITLE14=Glen Campbell - Rhinestone Cowboy
TTITLE15=Willie Nelson - Home is whre you´re happy
EXTD=YEAR: 2008
EXTT0=
EXTT1=
EXTT2=
EXTT3=
EXTT4=
EXTT5=
EXTT6=
EXTT7=
EXTT8=
EXTT9=
EXTT10=
EXTT11=
EXTT12=
EXTT13=
EXTT14=
EXTT15=
PLAYORDER=
